<svg viewBox="0 -10 680 360" xmlns="http://www.w3.org/2000/svg" role="img" aria-labelledby="viz-gap-title viz-gap-desc">
  <title id="viz-gap-title">Capability rises faster than controllability over time</title>
  <desc id="viz-gap-desc">Time on horizontal axis 2018 through 2026. A steep red curve shows model capability rising; a shallower green curve shows how much we can control behavior. A shaded wedge between them is labeled the alignment gap. Four milestones on the red curve are marked.</desc>
  <defs>
    <marker id="a-axis" viewBox="0 0 10 10" refX="9" refY="5" markerWidth="6" markerHeight="6" orient="auto"><path d="M0,2 L9,5 L0,8 Z" fill="#9B9BA8"/></marker>
  </defs>
  <!-- Axes -->
  <line x1="56" y1="32" x2="56" y2="264" stroke="#E4E2DC" stroke-width="1.5" marker-end="url(#a-axis)"/>
  <line x1="56" y1="264" x2="662" y2="264" stroke="#E4E2DC" stroke-width="1.5" marker-end="url(#a-axis)"/>
  <!-- Year labels -->
  <text x="90"  y="281" text-anchor="middle" font-size="11" font-weight="600" fill="#6B6B85">2018</text>
  <text x="196" y="281" text-anchor="middle" font-size="11" font-weight="600" fill="#6B6B85">2020</text>
  <text x="302" y="281" text-anchor="middle" font-size="11" font-weight="600" fill="#6B6B85">2022</text>
  <text x="408" y="281" text-anchor="middle" font-size="11" font-weight="600" fill="#6B6B85">2024</text>
  <text x="514" y="281" text-anchor="middle" font-size="11" font-weight="600" fill="#6B6B85">2025</text>
  <text x="620" y="281" text-anchor="middle" font-size="11" font-weight="600" fill="#6B6B85">2026</text>
  <!-- Y-axis label -->
  <text x="18" y="154" font-size="11" font-weight="600" fill="#6B6B85" transform="rotate(-90,18,154)">Capability &amp; control ↑</text>
  <!-- Gap fill wedge (solid warm fill between capability and control curves) -->
  <path d="M 90,246 C 140,231 190,206 250,174 C 310,142 370,104 430,78 C 480,58 540,48 620,44
           L 620,172 C 540,165 480,165 430,172 C 370,181 310,196 250,214 C 190,230 140,240 90,246 Z"
        fill="#E8A898" fill-opacity="0.55" stroke="#C94B2E" stroke-opacity="0.22" stroke-width="0.75"/>
  <!-- Capability curve (red) -->
  <path d="M 90,246 C 140,231 190,206 250,174 C 310,142 370,104 430,78 C 480,58 540,48 620,44"
        stroke="#C94B2E" stroke-width="3" fill="none"/>
  <!-- Control curve (green) -->
  <path d="M 90,246 C 140,241 190,234 250,224 C 310,214 370,202 430,189 C 480,179 540,175 620,172"
        stroke="#2A7A5F" stroke-width="3" fill="none"/>
  <!-- Legend: What AI can do -->
  <rect x="498" y="30" width="120" height="22" rx="4" fill="#FDE8E3" opacity="0.9" stroke="rgba(201,75,46,0.4)" stroke-width="0.75"/>
  <text x="558" y="41" text-anchor="middle" dominant-baseline="middle" font-size="11" font-weight="700" fill="#C94B2E">What AI can do</text>
  <!-- Legend: What we can control -->
  <rect x="491" y="158" width="140" height="22" rx="4" fill="#EDF7F3" opacity="0.9" stroke="rgba(42,122,95,0.4)" stroke-width="0.75"/>
  <text x="561" y="169" text-anchor="middle" dominant-baseline="middle" font-size="11" font-weight="700" fill="#2A7A5F">What we can control</text>
  <!-- Gap dashed measurement line -->
  <line x1="490" y1="46" x2="490" y2="171" stroke="#9B9BA8" stroke-width="1" stroke-dasharray="3,3"/>
  <!-- THE GAP label -->
  <text x="450" y="112" font-size="11" font-weight="700" font-style="italic" fill="#C94B2E" opacity="0.45">THE GAP</text>
  <!-- Milestone: GPT-3 — label above connector & curve; text vertically centered in pill -->
  <line x1="250" y1="138" x2="250" y2="174" stroke="#6B6B85" stroke-width="1" stroke-opacity="0.55"/>
  <rect x="210" y="116" width="80" height="22" rx="4" fill="#F7F6F3" opacity="0.96" stroke="#E4E2DC" stroke-width="0.75"/>
  <text x="250" y="127" text-anchor="middle" dominant-baseline="middle" font-size="11" font-weight="600" fill="#6B6B85">GPT-3</text>
  <circle cx="250" cy="174" r="5" fill="#C94B2E"/>
  <!-- Milestone: ChatGPT -->
  <line x1="302" y1="106" x2="302" y2="142" stroke="#6B6B85" stroke-width="1" stroke-opacity="0.55"/>
  <rect x="255" y="84" width="94" height="22" rx="4" fill="#F7F6F3" opacity="0.96" stroke="#E4E2DC" stroke-width="0.75"/>
  <text x="302" y="95" text-anchor="middle" dominant-baseline="middle" font-size="11" font-weight="600" fill="#6B6B85">ChatGPT</text>
  <circle cx="302" cy="142" r="5" fill="#C94B2E"/>
  <!-- Milestone: GPT-4 / Claude -->
  <line x1="408" y1="42" x2="408" y2="78" stroke="#6B6B85" stroke-width="1" stroke-opacity="0.55"/>
  <rect x="330" y="20" width="156" height="22" rx="4" fill="#F7F6F3" opacity="0.96" stroke="#E4E2DC" stroke-width="0.75"/>
  <text x="408" y="31" text-anchor="middle" dominant-baseline="middle" font-size="11" font-weight="600" fill="#6B6B85">GPT-4 / Claude</text>
  <circle cx="408" cy="78" r="5" fill="#C94B2E"/>
  <!-- Milestone: o1 / Claude 3.5 -->
  <line x1="530" y1="14" x2="530" y2="48" stroke="#6B6B85" stroke-width="1" stroke-opacity="0.55"/>
  <rect x="464" y="-8" width="132" height="22" rx="4" fill="#F7F6F3" opacity="0.96" stroke="#E4E2DC" stroke-width="0.75"/>
  <text x="530" y="3" text-anchor="middle" dominant-baseline="middle" font-size="11" font-weight="600" fill="#6B6B85">o1 / Claude 3.5</text>
  <circle cx="530" cy="48" r="5" fill="#C94B2E"/>
  <text x="340" y="298" text-anchor="middle" font-size="10.5" font-style="italic" fill="#6B6B85">DIA-003 — The Capability–Alignment Gap (2018–2026): capability (what models can do) has risen steeply.</text>
  <text x="340" y="312" text-anchor="middle" font-size="10.5" font-style="italic" fill="#6B6B85">Our ability to ensure models do what we want in every situation has risen much more slowly.</text>
  <text x="340" y="326" text-anchor="middle" font-size="10.5" font-style="italic" fill="#6B6B85">The shaded region is the alignment problem: it doesn't close automatically, and it must be</text>
  <text x="340" y="340" text-anchor="middle" font-size="10.5" font-style="italic" fill="#6B6B85">actively maintained at effort that scales with capability.</text>
</svg>
