<svg viewBox="0 0 660 468" xmlns="http://www.w3.org/2000/svg" role="img" aria-labelledby="viz-loops-title viz-loops-desc">
  <title id="viz-loops-title">Reinforcing capability loop R1, weak oversight loop B, and paradoxical R2</title>
  <desc id="viz-loops-desc">Top triangle: red reinforcing loop R1 joins Model capability, Investment and funding, and More compute. Below a dashed separator, balancing loop B appears in greens. Amber banner defines R2, the safety-alarm-as-accelerant dynamic.</desc>
  <defs>
    <marker id="f-r" viewBox="0 0 10 10" refX="9" refY="5" markerWidth="6" markerHeight="6" orient="auto" markerUnits="strokeWidth"><path d="M0,1 L9,5 L0,9 Z" fill="#C94B2E"/></marker>
    <marker id="f-b" viewBox="0 0 10 10" refX="9" refY="5" markerWidth="6" markerHeight="6" orient="auto" markerUnits="strokeWidth"><path d="M0,1 L9,5 L0,9 Z" fill="#2A7A5F"/></marker>
  </defs>
  <!-- HEADER BANNERS -->
  <rect x="10" y="8" width="298" height="34" rx="8" fill="#FDE8E3" stroke="#C94B2E" stroke-width="1.5"/>
  <text x="159" y="29" text-anchor="middle" font-size="12" font-weight="700" fill="#C94B2E">R1 — Reinforcing capability loop</text>
  <rect x="316" y="8" width="334" height="34" rx="8" fill="#FEF8E8" stroke="#C9880A" stroke-width="1.5"/>
  <text x="483" y="29" text-anchor="middle" font-size="12" font-weight="700" fill="#C9880A">R2 — Alarm → invest (still reinforcing)</text>
  <!-- R1 NODES -->
  <rect x="20" y="44" width="175" height="58" rx="10" fill="#FDE8E3" stroke="#C94B2E" stroke-width="2"/>
  <text x="107" y="70" text-anchor="middle" font-size="13" font-weight="700" fill="#C94B2E">Model</text>
  <text x="107" y="86" text-anchor="middle" font-size="13" font-weight="700" fill="#C94B2E">Capability</text>
  <rect x="465" y="44" width="175" height="58" rx="10" fill="#FDE8E3" stroke="#C94B2E" stroke-width="2"/>
  <text x="552" y="70" text-anchor="middle" font-size="13" font-weight="700" fill="#C94B2E">Investment</text>
  <text x="552" y="86" text-anchor="middle" font-size="13" font-weight="700" fill="#C94B2E">&amp; Funding</text>
  <rect x="242" y="248" width="176" height="58" rx="10" fill="#FDE8E3" stroke="#C94B2E" stroke-width="2"/>
  <text x="330" y="274" text-anchor="middle" font-size="13" font-weight="700" fill="#C94B2E">More</text>
  <text x="330" y="290" text-anchor="middle" font-size="13" font-weight="700" fill="#C94B2E">Compute</text>
  <!-- R1 ARROWS -->
  <path d="M 197,73 Q 330,45 463,73" stroke="#C94B2E" stroke-width="2.5" fill="none" marker-end="url(#f-r)"/>
  <rect x="248" y="42" width="164" height="22" rx="5" fill="#FDE8E3" opacity="0.92" stroke="rgba(201,75,46,0.35)" stroke-width="0.75"/>
  <text x="330" y="57" text-anchor="middle" font-size="11" font-weight="600" fill="#C94B2E">capability attracts capital</text>
  <path d="M 550,104 Q 612,178 420,246" stroke="#C94B2E" stroke-width="2.5" fill="none" marker-end="url(#f-r)"/>
  <rect x="496" y="158" width="142" height="22" rx="5" fill="#FDE8E3" opacity="0.92" stroke="rgba(201,75,46,0.35)" stroke-width="0.75"/>
  <text x="567" y="173" text-anchor="middle" font-size="11" font-weight="600" fill="#C94B2E">capital buys compute</text>
  <path d="M 250,246 Q 54,178 109,104" stroke="#C94B2E" stroke-width="2.5" fill="none" marker-end="url(#f-r)"/>
  <rect x="22" y="158" width="196" height="22" rx="5" fill="#FDE8E3" opacity="0.92" stroke="rgba(201,75,46,0.35)" stroke-width="0.75"/>
  <text x="120" y="173" text-anchor="middle" font-size="11" font-weight="600" fill="#C94B2E">compute trains better models</text>
  <text x="330" y="178" text-anchor="middle" font-size="38" font-weight="900" fill="#C94B2E" opacity="0.08">R1</text>
  <text x="330" y="178" text-anchor="middle" font-size="24" font-weight="900" fill="#C94B2E" opacity="0.25">R1</text>
  <text x="330" y="204" text-anchor="middle" font-size="10.5" font-weight="700" fill="#C94B2E">&#9889; High loop velocity = pressure</text>
  <text x="330" y="218" text-anchor="middle" font-size="10" fill="#C94B2E">forces deployment before safety is ready</text>
  <!-- R2 ANNOTATION -->
  <rect x="240" y="220" width="180" height="28" rx="6" fill="#FEF8E8" stroke="#C9880A" stroke-width="1"/>
  <text x="330" y="238" text-anchor="middle" font-size="10.5" fill="#C9880A">R2: alarm &#x2192; investment &#x2192; speed</text>
  <!-- SEPARATOR -->
  <line x1="10" y1="335" x2="650" y2="335" stroke="#E4E2DC" stroke-width="1" stroke-dasharray="4,4"/>
  <rect x="88" y="338" width="484" height="28" rx="8" fill="#EDF7F3" stroke="#2A7A5F" stroke-width="1.5" opacity="0.95"/>
  <text x="330" y="356" text-anchor="middle" font-size="11" font-weight="800" fill="#2A7A5F" letter-spacing="0.04em">B — Balancing / oversight loop (slow, under-resourced, partially dismantled)</text>
  <!-- B LOOP NODES -->
  <rect x="38" y="358" width="150" height="54" rx="8" fill="#EDF7F3" stroke="#2A7A5F" stroke-width="2" stroke-dasharray="6,4"/>
  <text x="113" y="381" text-anchor="middle" font-size="12" font-weight="600" fill="#2A7A5F">Harm /</text>
  <text x="113" y="396" text-anchor="middle" font-size="12" font-weight="600" fill="#2A7A5F">Risk Visible</text>
  <rect x="254" y="358" width="150" height="54" rx="8" fill="#EDF7F3" stroke="#2A7A5F" stroke-width="2" stroke-dasharray="6,4"/>
  <text x="329" y="381" text-anchor="middle" font-size="12" font-weight="600" fill="#2A7A5F">Oversight</text>
  <text x="329" y="396" text-anchor="middle" font-size="12" font-weight="600" fill="#2A7A5F">Response</text>
  <rect x="470" y="358" width="150" height="54" rx="8" fill="#EDF7F3" stroke="#2A7A5F" stroke-width="2" stroke-dasharray="6,4"/>
  <text x="545" y="381" text-anchor="middle" font-size="12" font-weight="600" fill="#2A7A5F">Deployment</text>
  <text x="545" y="396" text-anchor="middle" font-size="12" font-weight="600" fill="#2A7A5F">Slows (?)</text>
  <!-- B LOOP ARROWS -->
  <path d="M 190,390 Q 222,412 254,390" stroke="#2A7A5F" stroke-width="2" stroke-dasharray="5,4" fill="none" marker-end="url(#f-b)"/>
  <rect x="178" y="406" width="88" height="22" rx="4" fill="#EDF7F3" opacity="0.98" stroke="rgba(42,122,95,0.35)" stroke-width="0.75"/>
  <text x="222" y="421" text-anchor="middle" font-size="11" font-weight="600" fill="#2A7A5F">triggers?</text>
  <path d="M 406,390 Q 438,412 470,390" stroke="#2A7A5F" stroke-width="2" stroke-dasharray="5,4" fill="none" marker-end="url(#f-b)"/>
  <rect x="394" y="406" width="88" height="22" rx="4" fill="#EDF7F3" opacity="0.98" stroke="rgba(42,122,95,0.35)" stroke-width="0.75"/>
  <text x="438" y="421" text-anchor="middle" font-size="11" font-weight="600" fill="#2A7A5F">years later?</text>
  <rect x="192" y="434" width="276" height="26" rx="6" fill="#F0EFF0" stroke="#9B9BA8" stroke-width="1" stroke-dasharray="4,3"/>
  <text x="330" y="451" text-anchor="middle" font-size="11" font-weight="700" fill="#6B6B85">! B loop not functioning at scale</text>
</svg>
