<svg viewBox="0 0 720 500" xmlns="http://www.w3.org/2000/svg" role="img" aria-labelledby="viz-loops-title viz-loops-desc">
  <title id="viz-loops-title">Stock-and-flow view of frontier AI capability with broken balancing loop and R2 amplifier</title>
  <desc id="viz-loops-desc">Frontier AI capability is drawn as a stock on a main pipe between clouds. Training and deployment are T-fittings on that pipe (run along the flow, stub for information). Other information links use small open circles at their sources. Two balancing loops: capability-gap on the left, dashed harm-feedback on the right. Red sweep is R2.</desc>
  <defs>
    <marker id="d6-flow-head" viewBox="0 0 12 12" refX="10" refY="6" markerWidth="5" markerHeight="5" orient="auto" markerUnits="strokeWidth">
      <path d="M 0 0 L 12 6 L 0 12 z" fill="#9B9382"/>
    </marker>
    <marker id="d6-info-head" viewBox="0 0 10 10" refX="9" refY="5" markerWidth="7" markerHeight="7" orient="auto" markerUnits="strokeWidth">
      <path d="M 0 1.5 L 9 5 L 0 8.5 z" fill="#1f1d18"/>
    </marker>
    <marker id="d6-info-head-faded" viewBox="0 0 10 10" refX="9" refY="5" markerWidth="7" markerHeight="7" orient="auto" markerUnits="strokeWidth">
      <path d="M 0 1.5 L 9 5 L 0 8.5 z" fill="#9B9382"/>
    </marker>
    <marker id="d6-info-head-r2" viewBox="0 0 10 10" refX="9" refY="5" markerWidth="7" markerHeight="7" orient="auto" markerUnits="strokeWidth">
      <path d="M 0 1.5 L 9 5 L 0 8.5 z" fill="#A04022"/>
    </marker>
  </defs>

  <!-- warm parchment background -->
  <rect x="0" y="0" width="720" height="500" fill="#FAF6EE"/>

  <!-- LEFT CLOUD (source) -->
  <path d="M 30 102 q 0 -16 16 -18 q 4 -14 22 -10 q 8 -12 24 -6 q 14 -2 16 14 q 14 4 8 20 q 6 14 -10 16 q -8 12 -24 6 q -14 8 -28 -2 q -16 4 -24 -8 q -10 -2 0 -12 z" fill="#FFFFFF" stroke="#1f1d18" stroke-width="1.5" stroke-linejoin="round"/>

  <!-- LEFT FLOW LINE (cloud → stock) -->
  <line x1="105" y1="105" x2="248" y2="105" stroke="#C7BFAE" stroke-width="14" stroke-linecap="butt" marker-end="url(#d6-flow-head)"/>

  <text x="178" y="55" text-anchor="middle" font-family="Georgia, 'Times New Roman', serif" font-size="14" font-style="italic" fill="#1f1d18">training</text>

  <!-- STOCK -->
  <rect x="258" y="68" width="200" height="74" fill="#FFFFFF" stroke="#1f1d18" stroke-width="1.75"/>
  <text x="358" y="100" text-anchor="middle" font-family="Georgia, 'Times New Roman', serif" font-size="14.5" fill="#1f1d18">frontier AI</text>
  <text x="358" y="120" text-anchor="middle" font-family="Georgia, 'Times New Roman', serif" font-size="14.5" fill="#1f1d18">capability</text>

  <!-- RIGHT FLOW LINE (stock → cloud) -->
  <line x1="458" y1="105" x2="618" y2="105" stroke="#C7BFAE" stroke-width="14" stroke-linecap="butt" marker-end="url(#d6-flow-head)"/>

  <text x="540" y="55" text-anchor="middle" font-family="Georgia, 'Times New Roman', serif" font-size="14" font-style="italic" fill="#1f1d18">deployment</text>

  <!-- RIGHT CLOUD (sink) -->
  <path d="M 624 102 q 0 -16 16 -18 q 4 -14 22 -10 q 8 -12 24 -6 q 14 -2 16 14 q 14 4 8 20 q 6 14 -10 16 q -8 12 -24 6 q -14 8 -28 -2 q -16 4 -24 -8 q -10 -2 0 -12 z" fill="#FFFFFF" stroke="#1f1d18" stroke-width="1.5" stroke-linejoin="round"/>

  <!-- AUXILIARY LABELS (no boxes — just text, like Meadows) -->
  <text x="108" y="288" text-anchor="middle" font-family="Georgia, 'Times New Roman', serif" font-size="13" fill="#1f1d18">investment</text>
  <text x="108" y="304" text-anchor="middle" font-family="Georgia, 'Times New Roman', serif" font-size="13" fill="#1f1d18">&amp; compute</text>

  <text x="298" y="222" text-anchor="middle" font-family="Georgia, 'Times New Roman', serif" font-size="13" fill="#1f1d18">capability gap</text>

  <text x="376" y="370" text-anchor="middle" font-family="Georgia, 'Times New Roman', serif" font-size="13" fill="#1f1d18">frontier target</text>

  <text x="600" y="222" text-anchor="middle" font-family="Georgia, 'Times New Roman', serif" font-size="13" fill="#1f1d18">visible harm</text>

  <text x="618" y="370" text-anchor="middle" font-family="Georgia, 'Times New Roman', serif" font-size="13" fill="#1f1d18">oversight</text>
  <text x="618" y="386" text-anchor="middle" font-family="Georgia, 'Times New Roman', serif" font-size="13" fill="#1f1d18">response</text>

  <!-- LOOP LETTERS -->
  <text x="232" y="178" text-anchor="middle" font-family="Georgia, 'Times New Roman', serif" font-size="22" font-style="italic" fill="#1f1d18">B</text>
  <text x="486" y="178" text-anchor="middle" font-family="Georgia, 'Times New Roman', serif" font-size="22" font-style="italic" fill="#9B9382">B</text>

  <!-- Training T — absolute coords (adjust without touching deployment) -->
  <g id="d6-t-training" stroke="#1f1d18" stroke-linecap="square">
    <line x1="158" y1="105" x2="198" y2="105" stroke-width="12.5"/>
    <line x1="171.75" y1="105" x2="171.75" y2="129" stroke-width="12.5"/>
  </g>
  <!-- Deployment T — absolute coords (adjust without touching training) -->
  <g id="d6-t-deployment" stroke="#1f1d18" stroke-linecap="square">
    <line x1="520" y1="105" x2="560" y2="105" stroke-width="12.5"/>
    <line x1="533.75" y1="105" x2="533.75" y2="129" stroke-width="12.5"/>
  </g>

  <!-- INFO LINKS — open circles at sources; training/deployment use T stubs -->

  <!-- 1. stock → capability gap -->
  <circle cx="320" cy="142" r="3.2" fill="#FAF6EE" stroke="#1f1d18" stroke-width="1.25"/>
  <path d="M 320 145 Q 308 180 300 210" stroke="#1f1d18" stroke-width="1.25" fill="none" marker-end="url(#d6-info-head)"/>

  <!-- 2. frontier target → capability gap -->
  <circle cx="368" cy="358" r="3.2" fill="#FAF6EE" stroke="#1f1d18" stroke-width="1.25"/>
  <path d="M 365 355 Q 320 290 304 232" stroke="#1f1d18" stroke-width="1.25" fill="none" marker-end="url(#d6-info-head)"/>

  <!-- 3. capability gap → investment & compute -->
  <circle cx="252" cy="222" r="3.2" fill="#FAF6EE" stroke="#1f1d18" stroke-width="1.25"/>
  <path d="M 249 224 Q 175 252 122 282" stroke="#1f1d18" stroke-width="1.25" fill="none" marker-end="url(#d6-info-head)"/>

  <!-- 4. investment & compute → training T stub -->
  <circle cx="118" cy="278" r="3.2" fill="#FAF6EE" stroke="#1f1d18" stroke-width="1.25"/>
  <path d="M 122 274 Q 154 220 178 129" stroke="#1f1d18" stroke-width="1.25" fill="none" marker-end="url(#d6-info-head)"/>

  <!-- 5. deployment T stub → visible harm -->
  <path d="M 540 129 Q 565 175 596 210" stroke="#1f1d18" stroke-width="1.25" fill="none" marker-end="url(#d6-info-head)"/>

  <!-- 6. visible harm → oversight response (BROKEN B) -->
  <circle cx="612" cy="232" r="3.2" fill="#FAF6EE" stroke="#9B9382" stroke-width="1.25"/>
  <path d="M 614 235 Q 632 295 622 358" stroke="#9B9382" stroke-width="1.25" fill="none" stroke-dasharray="5,4" marker-end="url(#d6-info-head-faded)"/>

  <!-- 7. oversight response → frontier target (BROKEN B) -->
  <circle cx="582" cy="378" r="3.2" fill="#FAF6EE" stroke="#9B9382" stroke-width="1.25"/>
  <path d="M 580 378 Q 480 388 412 374" stroke="#9B9382" stroke-width="1.25" fill="none" stroke-dasharray="5,4" marker-end="url(#d6-info-head-faded)"/>

  <!-- 8. visible harm → investment & compute (R2) -->
  <circle cx="572" cy="232" r="3.2" fill="#FAF6EE" stroke="#A04022" stroke-width="1.5"/>
  <path d="M 568 235 C 510 470, 220 480, 118 312" stroke="#A04022" stroke-width="1.6" fill="none" marker-end="url(#d6-info-head-r2)"/>

  <!-- R2 label along the red sweep -->
  <text x="340" y="478" text-anchor="middle" font-family="Georgia, 'Times New Roman', serif" font-size="13" font-style="italic" font-weight="700" fill="#A04022">R2 &#8201;&#8211;&#8201; alarm becomes accelerant</text>

  <!-- "broken loop" hint near right B -->
  <text x="503" y="195" text-anchor="middle" font-family="Georgia, 'Times New Roman', serif" font-size="10" font-style="italic" fill="#9B9382">(slow &#183; weak &#183; partially severed)</text>

</svg>
